<svg viewBox="0 0 871 480" xmlns="http://www.w3.org/2000/svg" style="fill-rule:evenodd;clip-rule:evenodd"><g transform="matrix(1,0,0,1,-947.845528,-1094.164614)"><g transform="matrix(1,0,0,1,1383.262195,1333.747947)"><g transform="matrix(1,0,0,1,-435.416667,-239.583333)"><g transform="matrix(4.166667,0,0,4.166667,0,0)"><path d="M99.51,0.283C100.425,0.177 101.527,0.061 101.961,0.025C102.395,-0.012 103.89,-0.007 105.287,0.035C106.684,0.079 108.653,0.22 109.664,0.351C110.674,0.482 112.447,0.799 113.603,1.054C114.758,1.309 116.768,1.87 118.067,2.302C119.366,2.732 121.552,3.63 122.925,4.298C124.297,4.965 126.305,6.112 127.389,6.844C128.473,7.576 130.099,8.815 131.006,9.597C131.911,10.378 133.355,11.804 134.213,12.765C135.071,13.726 136.431,15.497 137.235,16.697C138.038,17.9 139.048,19.59 139.479,20.455C139.908,21.32 140.496,22.578 140.783,23.251C141.072,23.924 141.548,25.182 141.844,26.047C142.14,26.912 142.665,28.76 143.012,30.154C143.357,31.549 143.656,32.709 143.677,32.734C143.696,32.758 144.423,32.508 145.29,32.18C146.156,31.851 147.495,31.421 148.266,31.226C149.036,31.03 150.414,30.747 151.329,30.6C152.245,30.451 153.878,30.331 154.962,30.329C156.046,30.329 157.502,30.413 158.201,30.516C158.899,30.619 160.258,30.906 161.221,31.152C162.183,31.4 163.642,31.89 164.459,32.241C165.277,32.592 166.459,33.185 167.085,33.559C167.712,33.933 168.694,34.597 169.272,35.035C169.848,35.474 170.825,36.306 171.441,36.883C172.057,37.459 173.046,38.56 173.638,39.33C174.23,40.099 174.916,41.042 175.165,41.427C175.411,41.811 175.949,42.793 176.36,43.611C176.772,44.429 177.369,45.883 177.687,46.844C178.006,47.806 178.386,49.183 178.533,49.903C178.68,50.625 178.888,52.157 178.997,53.311C179.105,54.464 179.235,55.448 179.284,55.495C179.335,55.543 180.214,55.679 181.239,55.796C182.265,55.913 183.734,56.135 184.504,56.289C185.275,56.443 186.771,56.808 187.831,57.098C188.89,57.388 190.544,57.946 191.507,58.337C192.47,58.727 193.849,59.352 194.571,59.728C195.294,60.104 196.633,60.908 197.547,61.516C198.461,62.124 199.95,63.318 200.857,64.171C201.764,65.022 202.914,66.23 203.413,66.855C203.912,67.481 204.623,68.463 204.991,69.04C205.36,69.617 206.011,70.796 206.44,71.661C206.869,72.526 207.482,74.021 207.802,74.982C208.124,75.943 208.522,77.476 208.686,78.39C208.881,79.463 208.991,81.008 209,82.759C209.007,84.348 208.912,86.01 208.772,86.779C208.639,87.5 208.298,88.797 208.011,89.662C207.722,90.527 207.156,91.943 206.752,92.808C206.347,93.673 205.617,94.972 205.129,95.692C204.64,96.413 203.753,97.553 203.158,98.226C202.564,98.899 201.51,99.942 200.819,100.545C200.126,101.148 198.93,102.062 198.16,102.576C197.389,103.091 195.892,103.948 194.833,104.479C193.774,105.012 192.158,105.723 191.244,106.061C190.331,106.398 188.676,106.915 187.568,107.209C186.46,107.502 184.335,107.938 182.841,108.177C181.348,108.415 178.829,108.701 177.239,108.813C175.548,108.932 173.262,108.969 171.725,108.899C170.28,108.834 168.311,108.705 167.348,108.609C166.385,108.514 164.416,108.242 162.971,108.004C161.527,107.766 159.281,107.289 157.982,106.943C156.683,106.599 155.086,106.127 153.255,105.479L151.898,106.592C151.153,107.205 149.754,108.217 148.791,108.841C147.828,109.463 146.331,110.33 145.465,110.765C144.598,111.2 143.141,111.849 142.226,112.205C141.31,112.564 139.696,113.081 138.637,113.355C137.578,113.631 135.964,113.993 135.048,114.161C133.753,114.399 132.398,114.467 128.921,114.472C125.458,114.476 124.044,114.409 122.618,114.17C121.608,114.002 119.716,113.595 118.417,113.264C117.118,112.934 115.306,112.392 114.39,112.06C113.475,111.728 111.98,111.125 111.064,110.723C110.149,110.32 109.205,109.872 108.963,109.725C108.564,109.482 108.464,109.491 107.825,109.811C107.44,110.005 106.495,110.416 105.725,110.725C104.954,111.033 103.34,111.625 102.136,112.039C100.933,112.455 99.002,113.03 97.847,113.319C96.691,113.607 95.116,113.962 94.345,114.105C93.575,114.248 91.961,114.509 90.756,114.684C89.009,114.939 87.493,115.003 83.229,115C79.052,114.998 77.432,114.932 75.788,114.691C74.633,114.521 73.057,114.261 72.287,114.11C71.517,113.962 69.903,113.576 68.698,113.252C67.495,112.929 65.682,112.356 64.672,111.978C63.661,111.599 62.165,110.98 61.345,110.603C60.526,110.223 59.069,109.451 58.107,108.885C57.144,108.319 55.706,107.361 54.912,106.754C54.117,106.15 53.369,105.655 53.248,105.657C53.128,105.659 52.478,105.86 51.804,106.104C51.13,106.349 49.712,106.779 48.653,107.058C47.594,107.34 45.782,107.731 44.627,107.929C43.471,108.128 41.463,108.402 40.162,108.542C38.862,108.682 36.577,108.796 35.085,108.797C33.592,108.799 31.388,108.684 30.183,108.544C28.981,108.402 27.169,108.13 26.157,107.936C25.145,107.744 23.373,107.298 22.218,106.948C21.063,106.599 19.329,105.975 18.367,105.561C17.404,105.147 16.026,104.482 15.303,104.084C14.582,103.684 13.321,102.911 12.502,102.368C11.682,101.822 10.235,100.707 9.282,99.888C8.33,99.07 6.957,97.693 6.231,96.828C5.504,95.963 4.5,94.626 4.001,93.857C3.5,93.088 2.775,91.829 2.39,91.06C2.005,90.291 1.413,88.797 1.075,87.74C0.736,86.683 0.352,85.228 0.223,84.507C0.088,83.75 -0.007,82.049 0,80.487C0.006,78.998 0.111,77.268 0.231,76.642C0.354,76.016 0.692,74.76 0.984,73.846C1.277,72.932 1.872,71.478 2.306,70.613C2.742,69.748 3.302,68.725 3.551,68.341C3.799,67.956 4.447,67.053 4.99,66.331C5.532,65.611 6.835,64.194 7.882,63.182C9.006,62.1 10.58,60.817 11.714,60.059C12.773,59.352 14.191,58.498 14.865,58.161C15.539,57.823 16.84,57.255 17.754,56.899C18.668,56.544 20.205,56.046 21.168,55.796C22.131,55.544 23.587,55.219 24.406,55.076C25.226,54.931 26.435,54.751 27.095,54.674C27.755,54.597 28.358,54.456 28.435,54.359C28.51,54.263 28.662,53.203 28.773,52C28.881,50.799 29.095,49.227 29.243,48.505C29.394,47.785 29.711,46.526 29.949,45.709C30.185,44.891 30.838,43.279 31.4,42.126C31.962,40.972 32.923,39.321 33.534,38.457C34.147,37.592 35.476,36.054 36.486,35.037C37.496,34.02 38.916,32.758 39.637,32.234C40.36,31.71 41.344,31.039 41.825,30.743C42.307,30.448 43.154,29.959 43.707,29.656C44.261,29.354 45.521,28.781 46.508,28.382C47.496,27.985 49.169,27.442 50.229,27.174C51.288,26.909 52.765,26.605 53.511,26.5C54.257,26.395 56.148,26.311 57.713,26.311C60.029,26.313 60.948,26.393 62.658,26.739C63.814,26.974 65.449,27.405 66.291,27.699C67.133,27.992 67.901,28.192 67.998,28.145C68.094,28.097 68.373,27.369 68.618,26.528C68.861,25.687 69.346,24.291 69.694,23.426C70.043,22.561 70.603,21.302 70.939,20.63C71.275,19.957 71.963,18.738 72.469,17.921C72.973,17.103 73.88,15.768 74.482,14.95C75.085,14.132 76.256,12.725 77.084,11.821C77.912,10.918 79.337,9.553 80.252,8.787C81.168,8.024 82.744,6.851 83.754,6.182C84.764,5.514 86.537,4.502 87.693,3.934C88.848,3.368 90.581,2.62 91.544,2.274C92.507,1.928 94.319,1.381 95.571,1.061C96.823,0.739 98.594,0.39 99.51,0.283Z" style="fill:#000;fill-rule:nonzero;"/></g></g></g></g></svg>
